Coordinates
version=1
nRows=10
nColumns=34
inDegrees=yes

Units are S.I. units (second, meters, Newtons, ...)
If the header above contains a line with 'inDegrees', this indicates whether rotational values are in degrees (yes) or radians (no).

endheader
time	pelvis_tilt	pelvis_list	pelvis_rotation	pelvis_tx	pelvis_ty	pelvis_tz	hip_flexion_r	hip_adduction_r	hip_rotation_r	knee_angle_r	ankle_angle_r	subtalar_angle_r	mtp_angle_r	hip_flexion_l	hip_adduction_l	hip_rotation_l	knee_angle_l	ankle_angle_l	subtalar_angle_l	mtp_angle_l	lumbar_extension	lumbar_bending	lumbar_rotation	arm_flex_r	arm_add_r	arm_rot_r	elbow_flex_r	pro_sup_r	arm_flex_l	arm_add_l	arm_rot_l	elbow_flex_l	pro_sup_l
      0.00000000	     10.44704070	      3.53455044	      3.53108535	     -6.18160068	      1.81147743	      0.78229279	    -20.45057238	     -0.08966443	     -9.96844586	      0.00040799	      5.30554964	     10.59176277	      0.00000000	    -17.33703112	      2.95995526	     -6.46387124	      3.46983715	     -2.63351415	     -4.27543874	      0.00000000	    -21.82261250	     -0.98463021	     -4.95725695	     11.67923199	     -7.10432089	     52.91579945	     16.62103759	     30.98372261	      7.22700973	     -7.36475504	     48.70439439	     16.71681773	     28.69453097
      0.01666670	     10.09408077	      3.83630946	      3.95862836	     -6.18733289	      1.80710173	      0.78215056	    -19.44144176	      0.02730457	    -12.66127297	      0.00000000	      2.64506994	     13.50082438	      0.00000000	    -17.78274140	      2.98344481	     -7.18190363	      1.87426171	     -5.15809201	     -1.58976948	      0.00000000	    -22.44255149	     -0.69606197	     -4.50003482	     12.78166277	     -7.65160256	     56.35832494	     14.57944768	     46.13855929	      8.07037580	     -7.79610978	     51.22579107	     16.49175494	     41.08674429
      0.03333330	      7.62265835	      3.73772657	      4.29805092	     -6.18755460	      1.80486194	      0.78179768	    -16.57238503	      0.28985014	    -15.00372914	      0.00000000	      1.85438799	     13.67281400	      0.00000000	    -14.89749297	      2.94019335	     -8.09654647	      2.06844055	     -4.90784349	      0.90656229	      0.00000000	    -20.09425216	     -0.82950640	     -3.80224486	     12.20047897	     -7.92034655	     57.06784718	     15.16533503	     47.20546677	      8.10200062	     -8.29850857	     51.60852194	     17.59102859	     42.06030405
      0.05000000	      7.07607812	      3.76621857	      4.59969973	     -6.18686339	      1.80538755	      0.78143029	    -15.96991637	      0.18651776	    -16.36978436	      0.00000000	      1.25261121	     14.51600806	      0.00000000	    -14.82344273	      3.15627636	     -9.18876729	      0.82840558	     -4.89913472	      3.49713394	      0.00000000	    -19.70114314	     -0.79102331	     -3.37954510	     12.41194716	     -8.11002379	     61.13410593	     14.63229586	     50.05178628	      8.65394597	     -8.17097463	     54.09495752	     16.93570972	     44.39822447
      0.06666670	      6.71125381	      3.82396457	      4.90308964	     -6.18523228	      1.80519595	      0.78168061	    -15.65099885	      0.16989453	    -16.85565673	      0.00000000	      1.27933080	     14.22018988	      0.00000000	    -14.81517675	      3.29797345	     -9.81507756	      0.03136786	     -5.60103435	      3.76351635	      0.00000000	    -19.58361123	     -0.85639701	     -3.12756428	     12.50073624	     -8.07161188	     61.72467392	     14.41215983	     50.37901365	      9.04545903	     -8.01221333	     54.36751007	     16.83428843	     44.64638082
      0.08333330	      6.19247928	      3.86428754	      5.14094849	     -6.18567752	      1.80567645	      0.78134079	    -15.17032073	      0.09790433	    -17.17287483	      0.00000000	      1.23074618	     14.17503349	      0.00000000	    -14.31061253	      3.34289615	    -11.04087942	      0.00000000	     -5.09277733	      5.24546284	      0.00000000	    -18.92590589	     -0.92334990	     -3.12949619	     12.79521536	     -7.88630978	     64.96226760	     13.41837024	     51.89225203	      9.44226152	     -7.73921699	     56.38790230	     15.50399585	     45.85078201
      0.10000000	      6.16908867	      4.00224767	      5.46115386	     -6.18549686	      1.80430597	      0.78148346	    -15.22656884	      0.03560644	    -17.49524311	      0.00000000	      1.42443764	     13.86606997	      0.00000000	    -14.33539384	      3.39190559	    -11.44791898	      0.00000000	     -5.44681853	      5.17963782	      0.00000000	    -18.94720943	     -1.04902402	     -3.36567817	     12.58859087	     -7.79874226	     65.12260664	     13.43868889	     51.94324951	      9.67331098	     -7.86092240	     56.48654495	     15.50981880	     45.91347909
      0.11666670	      6.14995118	      4.04430551	      5.49121427	     -6.18729044	      1.80334081	      0.78133832	    -15.24101886	     -0.01684779	    -17.50637443	      0.00000000	      1.41890300	     13.84276009	      0.00000000	    -14.32024153	      3.42916710	    -11.53287948	      0.00000000	     -5.49182728	      5.18322158	      0.00000000	    -18.93120952	     -0.99860246	     -3.53847849	     12.43060253	     -7.80821181	     65.15574359	     13.43057630	     51.95173715	      9.81235786	     -7.90478080	     56.50203758	     15.50585307	     45.92546535
      0.13333330	      6.02627321	      4.19919569	      5.71491476	     -6.18633439	      1.80370030	      0.78089429	    -15.17958073	     -0.13736445	    -17.91915921	      0.00000000	      1.22104255	     13.48343954	      0.00000000	    -14.18546519	      3.53438551	    -11.93366772	      0.00000000	     -6.14387758	      5.63880455	      0.00000000	    -18.69884246	     -1.14559530	     -4.00204681	     12.14778472	     -7.68308279	     65.38701266	     13.50255280	     52.02043008	      9.74907098	     -8.10118759	     56.81249405	     15.35172036	     46.06254723
      0.15000000	      6.00440396	      4.20232287	      5.71268237	     -6.18577295	      1.80316502	      0.78126012	    -15.20976365	     -0.14220726	    -17.91928438	      0.00000000	      1.21962562	     13.48303161	      0.00000000	    -14.16994135	      3.52594723	    -11.93540330	      0.00000000	     -6.14511778	      5.64168158	      0.00000000	    -18.69928449	     -1.14512303	     -4.00360513	     12.14818659	     -7.68674404	     65.38864800	     13.50151195	     52.02091415	      9.74988042	     -8.10291057	     56.81456953	     15.35045513	     46.06347108
